<svg width="30" height="30" viewBox="0 0 30 30" fill="none" xmlns="http://www.w3.org/2000/svg">
<path d="M10.774 25.2702C10.774 25.0443 10.6029 24.9211 10.3702 24.9211H9.76099V25.6329H10.3633C10.6097 25.6329 10.774 25.496 10.774 25.2702Z" fill="#065A6F"/>
<path d="M10.3907 26.3037H9.76099V27.1045H10.3975C10.7055 27.1045 10.9177 26.9745 10.9177 26.7075C10.9177 26.4406 10.7192 26.3037 10.3907 26.3037Z" fill="#065A6F"/>
<path d="M3.62825 21.4714H2.9917V22.2722H3.62825C3.93625 22.2722 4.14843 22.1422 4.14843 21.8753C4.15528 21.6015 3.95678 21.4714 3.62825 21.4714Z" fill="#065A6F"/>
<path d="M4.01154 20.431C4.01154 20.2052 3.84043 20.082 3.60771 20.082H2.9917V20.7938H3.60087C3.84727 20.8006 4.01154 20.6638 4.01154 20.431Z" fill="#065A6F"/>
<path d="M6.21548 26.3653H7.11212L6.66038 25.0785L6.21548 26.3653Z" fill="#065A6F"/>
<path d="M17.2417 27.8369H14.9693V24.1819H15.7701V27.084H17.2417V27.8369V27.8369ZM14.5929 21.5125H12.9091V20.8007H14.5929V21.5125ZM14.4697 27.8369H12.1767V24.1819H14.4491V24.9416H12.9981V25.5097H14.2985V26.2421H12.9981V27.084H14.4697V27.8369V27.8369ZM10.5135 27.8369H8.93923V24.1819H10.4587C11.1021 24.1819 11.5812 24.4557 11.5812 25.0922C11.5812 25.5166 11.3964 25.7767 10.9995 25.8999V25.9136C11.417 25.982 11.7524 26.2079 11.7524 26.8102C11.7524 27.5631 11.1706 27.8369 10.5135 27.8369ZM7.62507 27.8369L7.36498 27.1045H5.955L5.70175 27.8369H4.79142L6.22878 24.1819H7.08435L8.52171 27.8369H7.62507ZM3.75104 22.9841H2.19048V19.3496H3.69629C4.33968 19.3496 4.82564 19.6166 4.82564 20.2531C4.82564 20.6775 4.62715 20.9376 4.2507 21.0608V21.0745C4.64768 21.1429 4.98991 21.3619 4.98991 21.9643C4.99676 22.7103 4.40812 22.9841 3.75104 22.9841ZM4.44235 27.8369H2.19048V24.1819H2.9913V27.084H4.44235V27.8369ZM5.46903 19.3496H6.26985V22.2312H7.74143V22.9909H5.46903V19.3496ZM8.05628 19.3496H8.9187V21.4509C8.9187 21.9095 9.15142 22.2312 9.61 22.2312C10.0686 22.2312 10.3013 21.9095 10.3013 21.4509V19.3496H11.1432V21.5194C11.1432 22.4639 10.6298 23.0662 9.60316 23.0662C8.56963 23.0662 8.05628 22.4639 8.05628 21.5194V19.3496V19.3496ZM25.6195 4.49689C25.5989 4.47635 25.5784 4.45582 25.5647 4.44213C25.5442 4.4216 25.5236 4.40106 25.51 4.38737C22.6831 1.55372 18.9255 0 14.9351 0C10.9447 0 7.18702 1.55372 4.36706 4.38053C1.43073 7.31001 -0.0203189 11.2388 0.000214883 15.3661C0.0207486 19.9246 0.000214883 24.4831 0.000214883 29.0415C0.000214883 29.3016 0.123417 29.5344 0.315065 29.6849C0.465646 29.8766 0.698362 29.9998 0.958456 29.9998C5.51694 29.9998 10.0754 29.9861 14.6339 29.9998C18.7612 30.0203 22.6831 28.5693 25.6195 25.6398C28.4463 22.813 30 19.0621 30 15.0718C30 11.0745 28.4463 7.31685 25.6195 4.49689Z" fill="#065A6F"/>
</svg>
